<svg width="14" height="17" viewBox="0 0 14 17" fill="none" xmlns="http://www.w3.org/2000/svg">
<path d="M0 0H14V17H0V0Z" fill="white" fill-opacity="0.01"/>
<path d="M12.8334 3.89587C12.8334 3.89587 12.8333 12.7721 12.8333 13.4584C12.8333 14.632 10.2217 15.5834 7 15.5834C3.77834 15.5834 1.16668 14.632 1.16668 13.4584C1.16668 12.8004 1.16667 3.89587 1.16667 3.89587" stroke="#E7E7E7" stroke-linecap="round" stroke-linejoin="round"/>
<path d="M12.8333 10.2709C12.8333 11.4445 10.2217 12.3959 7 12.3959C3.77834 12.3959 1.16667 11.4445 1.16667 10.2709" stroke="#E7E7E7" stroke-linecap="round" stroke-linejoin="round"/>
<path d="M12.8333 7.08337C12.8333 8.25698 10.2217 9.20837 7 9.20837C3.77834 9.20837 1.16667 8.25698 1.16667 7.08337" stroke="#E7E7E7" stroke-linecap="round" stroke-linejoin="round"/>
<path d="M7 5.66663C10.2217 5.66663 12.8333 4.71523 12.8333 3.54163C12.8333 2.36802 10.2217 1.41663 7 1.41663C3.77834 1.41663 1.16667 2.36802 1.16667 3.54163C1.16667 4.71523 3.77834 5.66663 7 5.66663Z" fill="#5FA922" stroke="#E7E7E7" stroke-linecap="round" stroke-linejoin="round"/>
</svg>
