<svg width="19" height="19" viewBox="0 0 19 19" fill="none" xmlns="http://www.w3.org/2000/svg">
<path d="M9.5 1.58325C8.46037 1.58325 7.43092 1.78802 6.47042 2.18587C5.50993 2.58372 4.6372 3.16686 3.90207 3.90199C2.41741 5.38665 1.58334 7.40029 1.58334 9.49992C1.58334 12.9991 3.85542 15.9678 6.99834 17.0208C7.39417 17.0841 7.52084 16.8387 7.52084 16.6249V15.287C5.32792 15.762 4.86084 14.2262 4.86084 14.2262C4.49667 13.3078 3.98209 13.0624 3.98209 13.0624C3.26167 12.5716 4.0375 12.5874 4.0375 12.5874C4.82917 12.6428 5.24875 13.4028 5.24875 13.4028C5.9375 14.6062 7.10125 14.2499 7.5525 14.0599C7.62375 13.5453 7.82959 13.197 8.05125 12.9991C6.29375 12.8012 4.44917 12.1203 4.44917 9.10408C4.44917 8.22533 4.75 7.52075 5.26459 6.95867C5.18542 6.76075 4.90834 5.93742 5.34375 4.86867C5.34375 4.86867 6.00875 4.65492 7.52084 5.67617C8.14625 5.502 8.82709 5.41492 9.5 5.41492C10.1729 5.41492 10.8538 5.502 11.4792 5.67617C12.9913 4.65492 13.6563 4.86867 13.6563 4.86867C14.0917 5.93742 13.8146 6.76075 13.7354 6.95867C14.25 7.52075 14.5508 8.22533 14.5508 9.10408C14.5508 12.1283 12.6983 12.7933 10.9329 12.9912C11.2179 13.2366 11.4792 13.7195 11.4792 14.4558V16.6249C11.4792 16.8387 11.6058 17.092 12.0096 17.0208C15.1525 15.9599 17.4167 12.9991 17.4167 9.49992C17.4167 8.46029 17.2119 7.43084 16.814 6.47034C16.4162 5.50985 15.8331 4.63712 15.0979 3.90199C14.3628 3.16686 13.4901 2.58372 12.5296 2.18587C11.5691 1.78802 10.5396 1.58325 9.5 1.58325Z" fill="white"/>
</svg>
