<svg width="20" height="19" viewBox="0 0 20 19" fill="none" xmlns="http://www.w3.org/2000/svg">
<path d="M0 0H19.7125V19H0V0Z" fill="white" fill-opacity="0.01"/>
<path d="M13.963 2.375H5.74947C3.93499 2.375 2.46406 3.79276 2.46406 5.54167V13.4583C2.46406 15.2072 3.93499 16.625 5.74947 16.625H13.963C15.7775 16.625 17.2484 15.2072 17.2484 13.4583V5.54167C17.2484 3.79276 15.7775 2.375 13.963 2.375Z" fill="#202121" stroke="#E7E7E7" stroke-width="1.4" stroke-linejoin="round"/>
<path d="M9.85626 12.6666C11.6708 12.6666 13.1417 11.2488 13.1417 9.49992C13.1417 7.75101 11.6708 6.33325 9.85626 6.33325C8.04176 6.33325 6.57084 7.75101 6.57084 9.49992C6.57084 11.2488 8.04176 12.6666 9.85626 12.6666Z" fill="#202121" stroke="white" stroke-width="1.4" stroke-linejoin="round"/>
<path d="M14.3737 5.93758C14.8273 5.93758 15.195 5.58315 15.195 5.14591C15.195 4.70868 14.8273 4.35425 14.3737 4.35425C13.9201 4.35425 13.5523 4.70868 13.5523 5.14591C13.5523 5.58315 13.9201 5.93758 14.3737 5.93758Z" fill="white"/>
</svg>
