<svg width="19" height="19" viewBox="0 0 18 18" fill="none" xmlns="http://www.w3.org/2000/svg">
<path d="M13.0395 0H1.03957C0.465702 0 0 0.454749 0 1.01473V13.0665C0 13.6272 0.465702 14.0826 1.03957 14.0826H13.0395C13.6137 14.0826 14.0826 13.6272 14.0826 13.0665V1.01473C14.0826 0.454749 13.6137 0 13.0395 0ZM4.17665 12.0003H2.08696V5.27998H4.17665V12.0003ZM3.1318 4.36109C2.46229 4.36109 1.92109 3.81852 1.92109 3.1496C1.92109 2.48166 2.46229 1.93909 3.1318 1.93909C3.79975 1.93909 4.34232 2.48166 4.34232 3.1496C4.34232 3.81852 3.79975 4.36109 3.1318 4.36109ZM11.9995 12.0003H9.91314V8.73235C9.91314 7.95273 9.89788 6.95033 8.82741 6.95033C7.74032 6.95033 7.57465 7.79939 7.57465 8.67583V12.0005H5.48672V5.27998H7.49055V6.19769H7.5191C7.79802 5.6696 8.47945 5.11236 9.49575 5.11236C11.6093 5.11236 11.9997 6.50379 11.9997 8.31399L11.9995 12.0003Z" fill="#E7E7E7"/>
</svg>
