<svg width="18" height="18" viewBox="0 0 18 18" fill="none" xmlns="http://www.w3.org/2000/svg">
<path d="M0.766465 0.00456436C0.533631 0.0828212 0.332816 0.235126 0.194692 0.438216C0.0565673 0.641306 -0.0112739 0.884017 0.00152982 1.12928V12.3764C0.00152982 12.6747 0.120046 12.9608 0.331007 13.1717C0.541967 13.3826 0.828091 13.5011 1.12643 13.5011H6.75096V15.7506H4.50115C3.26375 15.7506 2.25134 16.7628 2.25134 18H15.7502C15.7502 16.7628 14.7378 15.7506 13.5004 15.7506H11.2506V13.5011H16.8751C17.1734 13.5011 17.4596 13.3826 17.6705 13.1717C17.8815 12.9608 18 12.6747 18 12.3764V1.12928C18 0.830986 17.8815 0.544911 17.6705 0.333986C17.4596 0.123061 17.1734 0.00456436 16.8751 0.00456436L1.12643 0.00456436C1.05908 -0.00152145 0.991308 -0.00152145 0.923951 0.00456436C0.878996 0.00186261 0.833918 0.00186261 0.788963 0.00456436L0.766465 0.00456436ZM2.25134 2.25399H15.7502V11.2517H2.25134V2.25399Z" fill="#E7E7E7"/>
</svg>
